<?xml version="1.0" encoding="UTF-8"?><!DOCTYPE svg PUBLIC "-//W3C//DTD SVG 1.1//EN" "http://www.w3.org/Graphics/SVG/1.1/DTD/svg11.dtd"><svg xmlns="http://www.w3.org/2000/svg"><symbol id="arrowr-icon" viewBox="0 0 25 32"><path d="M24.58 16.61v-1.44h-.02l.02-.01L7.73.62 6.55 1.64l15.67 13.53H.2v1.44h22.06L6.55 30.16l1.18 1.02 16.85-14.54-.04-.03z"/></symbol><symbol id="callus-icon" viewBox="0 0 56 57"><path d="M42.2 15.63a2.5 2.5 0 0 0-1.85-.83h-1.3l.16-2.38.2-2.96A8.17 8.17 0 0 0 31.3.73h-6.43a8.17 8.17 0 0 0-8.08 8.73l.28 4.44.06.9h-1.4c-.71 0-1.39.3-1.86.82a2.57 2.57 0 0 0-.66 1.94l.42 4.96a2.52 2.52 0 0 0 1.66 2.17v4.62c0 .62.49 1.12 1.1 1.12.6 0 1.1-.5 1.1-1.12v-4.46h.3a10.44 10.44 0 0 0 10.3 9.23 10.4 10.4 0 0 0 8.65-4.7 5.6 5.6 0 0 0 2.1-.63c3.2-1.73 3.57-6.05 3.59-6.24l.42-4.95c.06-.7-.18-1.41-.66-1.93zm-26.36 6.7l-.42-4.96a.31.31 0 0 1 .31-.34h1.55l.36 5.58h-1.49a.3.3 0 0 1-.3-.28zM19 9.3a5.95 5.95 0 0 1 5.89-6.35h6.44c.14 0 .28 0 .42.02l-1.7 4.6c-.28.47-2.79 4.29-10.83 5.05zm17.26 14.81a8.35 8.35 0 0 1-.79 3.04 9.9 9.9 0 0 1-3.23-1.06 2.78 2.78 0 0 0-2.7-3.38 2.78 2.78 0 0 0-2.76 2.8 2.78 2.78 0 0 0 2.76 2.79c.5 0 .98-.14 1.38-.38 1.14.59 2.2 1 3.2 1.25a8.04 8.04 0 0 1-9.95 1.64 8.23 8.23 0 0 1-4.21-6.7l-.6-9.27c6.22-.57 9.6-2.87 11.28-4.52.44.52 1.08 1 1.9 1.43.9.46 2.38.95 4.42 1.45zm-6.17 1.4c0 .3-.24.55-.55.55a.56.56 0 0 1-.55-.55c0-.31.25-.56.55-.56.3 0 .55.25.55.56zM37.2 9.3l-.1 1.64a17.56 17.56 0 0 1-3.55-1.18c-1.2-.63-1.48-1.15-1.48-1.3v-.01l1.82-4.9a5.94 5.94 0 0 1 3.31 5.76zm.82 17.35c.17-.59.3-1.2.37-1.81h1.14a4.34 4.34 0 0 1-1.51 1.8zm2.22-4.33a.3.3 0 0 1-.31.28h-1.38l.36-5.58h1.44a.31.31 0 0 1 .3.34zm15.54 32.46l-1.07-5.95A16.54 16.54 0 0 0 41.63 35.5c-1-.2-2.02-.29-3.04-.29h-3.21c-.3 0-.57.12-.78.33l-6.5 6.58-6.5-6.58a1.1 1.1 0 0 0-.79-.33H17.6a16.25 16.25 0 0 0-11.58 4.85 16.54 16.54 0 0 0-4.54 8.77L.42 54.79c-.06.33.03.66.24.92.2.25.52.4.84.4h53.2c.33 0 .64-.15.85-.4.2-.26.3-.59.24-.92zm-26.9-10.3l6.96-7.03h3.18L28.1 48.51l-1.6-1.61zM17.6 37.47h2.76l6.18 6.25-1.6 1.6-7.77-7.85h.43zM3.66 49.24c1-5.62 5.29-10.14 10.75-11.42l12.9 13.06.09.08a1.1 1.1 0 0 0 1.48-.08l12.9-13.06a14.35 14.35 0 0 1 10.76 11.42l.83 4.64H2.82zm12.74-17.7c-.61 0-1.1.5-1.1 1.12v.45c0 .61.49 1.11 1.1 1.11.6 0 1.1-.5 1.1-1.11v-.45c0-.62-.5-1.12-1.1-1.12z"/></symbol><symbol id="design-logo" viewBox="0 0 91 32"><path d="M91 16.48c0-3.15-1.11-5.79-3.32-7.91a11.42 11.42 0 0 0-8.2-3.17c-3.25 0-5.98 1.06-8.2 3.17a10.52 10.52 0 0 0-3.3 7.91c0 3.16 1.1 5.8 3.3 7.91a11.37 11.37 0 0 0 8.2 3.17c3.26 0 5.99-1.05 8.2-3.17a10.49 10.49 0 0 0 3.31-7.91zm-3.8 0c0 2.16-.74 3.99-2.23 5.51a7.41 7.41 0 0 1-5.49 2.26c-2.17 0-4-.75-5.49-2.26a7.57 7.57 0 0 1-2.23-5.51c0-2.15.74-3.99 2.23-5.5a7.42 7.42 0 0 1 5.5-2.27c2.16 0 4 .76 5.48 2.27a7.55 7.55 0 0 1 2.24 5.5zm-22.49.04v-.04c0-3.16-1.1-5.8-3.32-7.92a11.41 11.41 0 0 0-8.2-3.18 11.4 11.4 0 0 0-9.34 4.43L38.66 17l3.1 2.02s5.4-7.53 5.91-8.05a7.44 7.44 0 0 1 6.12-2.25l-.05.05c1.93.12 3.58.87 4.94 2.25a7.46 7.46 0 0 1 2.23 5.46c0 2.16-.75 4-2.24 5.51a7.4 7.4 0 0 1-5.5 2.28l-.51-.02a8.22 8.22 0 0 1-2.08-.4c-.43.49-1.09 1.43-1.69 2.25l-.44.59a11.6 11.6 0 0 0 4.14.88l.6.04a11.38 11.38 0 0 0 9.83-5.14 10.36 10.36 0 0 1-2.1 3.23v6.29h3.77V16.81l.01-.29zM42.87 6.87l.44-.6a11.62 11.62 0 0 0-4.14-.87 11.41 11.41 0 0 0-10.43 5.09 10.32 10.32 0 0 1 2.1-3.22V.97h-3.78v15.51c0 3.17 1.1 5.81 3.32 7.92a11.4 11.4 0 0 0 8.2 3.18 11.4 11.4 0 0 0 9.34-4.42l5.17-7.2L50 13.95s-5.4 7.53-5.92 8.04a7.4 7.4 0 0 1-6.12 2.25l.05-.05a7.32 7.32 0 0 1-4.93-2.25 7.44 7.44 0 0 1-2.23-5.46c0-2.16.74-3.99 2.24-5.51a7.43 7.43 0 0 1 5.5-2.27l.5.02a7.8 7.8 0 0 1 2.09.39c.43-.48 1.09-1.42 1.69-2.24zM20.68 24.39A10.49 10.49 0 0 0 24 16.48c0-3.15-1.1-5.79-3.32-7.91a11.42 11.42 0 0 0-8.2-3.17C9.25 5.4 6.5 6.46 4.3 8.57a10.52 10.52 0 0 0-3.31 7.91c0 3.16 1.1 5.8 3.31 7.91a11.37 11.37 0 0 0 8.2 3.17c3.25 0 5.98-1.05 8.2-3.17zm-.47-7.91c0 2.16-.74 3.99-2.23 5.51a7.41 7.41 0 0 1-5.5 2.26c-2.16 0-3.99-.75-5.48-2.26a7.57 7.57 0 0 1-2.24-5.51c0-2.15.75-3.99 2.24-5.5a7.42 7.42 0 0 1 5.49-2.27c2.17 0 4 .76 5.49 2.27a7.55 7.55 0 0 1 2.23 5.5z"/></symbol><symbol id="destinations-icon" viewBox="0 0 56 57"><path d="M54.31 19.39a7.4 7.4 0 0 0 1.26-3.8 5.58 5.58 0 0 0-6.61-5.47A27.65 27.65 0 0 0 28.1.65c-7.4 0-14.36 2.88-19.59 8.1A27.5 27.5 0 0 0 .4 28.35a27.5 27.5 0 0 0 8.1 19.57 27.52 27.52 0 0 0 19.59 8.1c7.4 0 14.35-2.87 19.58-8.1a27.5 27.5 0 0 0 8.11-19.58c0-3.07-.5-6.08-1.48-8.95zm-4.3-7.16c1.85 0 3.36 1.5 3.36 3.36 0 1.93-2.04 4.27-3.37 5.53-1.33-1.26-3.37-3.6-3.37-5.53A3.37 3.37 0 0 1 50 12.23zm-3.2-1.2a5.57 5.57 0 0 0-2.38 4.56c0 3.77 4.37 7.46 4.87 7.86a1.1 1.1 0 0 0 1.4 0c.2-.16 1.04-.87 1.97-1.9.5 1.83.8 3.71.89 5.63h-9.48c-.16-6.8-1.74-13.16-4.49-18.03a20.35 20.35 0 0 0-4.05-5.19 25.45 25.45 0 0 1 11.27 7.07zM26.99 3.15v24.03H14.32c.08-3.41.54-6.7 1.33-9.71a17.24 17.24 0 0 0 4.08 4.88 1.1 1.1 0 0 0 1.4 0c.5-.4 4.87-4.1 4.87-7.86a5.58 5.58 0 0 0-6.76-5.44c2.22-3.43 4.91-5.47 7.75-5.9zM17.06 14.5a3.37 3.37 0 0 1 6.73 0c0 1.92-2.03 4.26-3.36 5.53-1.34-1.26-3.37-3.6-3.37-5.53zm3.59-10.53a20.33 20.33 0 0 0-4.05 5.19c-2.75 4.87-4.33 11.23-4.49 18.03H2.63A25.54 25.54 0 0 1 20.65 3.96zM2.63 29.38h9.48c.15 6.84 1.73 13.25 4.5 18.14a20.35 20.35 0 0 0 4.04 5.19A25.54 25.54 0 0 1 2.63 29.38zm24.36 24.14zm-8.47-7.08c-2.58-4.57-4.06-10.6-4.2-17.06h12.67v5.79a5.58 5.58 0 0 0-4.52 5.47c0 3.3 3.35 6.53 4.52 7.56v5.32c-3.15-.47-6.13-2.94-8.47-7.08zm9.52-.27c-1.33-1.27-3.36-3.6-3.36-5.53a3.37 3.37 0 0 1 6.73 0c0 1.92-2.04 4.26-3.37 5.53zm1.16 7.35V48.1c1.26-1.12 4.41-4.26 4.41-7.46 0-2.68-1.9-4.92-4.41-5.45V3.15c3.16.47 6.13 2.94 8.47 7.08 2.57 4.55 4.05 10.53 4.2 16.95H36.7a1.1 1.1 0 0 0 0 2.2h5.18c-.15 6.46-1.63 12.49-4.21 17.06-2.34 4.14-5.31 6.6-8.47 7.08zm6.35-.81a20.34 20.34 0 0 0 4.04-5.19c2.77-4.9 4.35-11.3 4.5-18.14h9.47c-.44 11-7.9 20.23-18.01 23.33zm-2.82-25.53h-.66a1.1 1.1 0 0 0 0 2.2h.66a1.1 1.1 0 1 0 0-2.2zM50 14.2c-.6 0-1.1.5-1.1 1.1v.45a1.1 1.1 0 1 0 2.2 0v-.44c0-.61-.49-1.1-1.1-1.1zm-29.57-1.1c-.61 0-1.1.5-1.1 1.1v.45a1.1 1.1 0 0 0 2.2 0v-.45c0-.6-.5-1.1-1.1-1.1zm7.61 26.15c-.6 0-1.1.5-1.1 1.1v.44a1.1 1.1 0 1 0 2.2 0v-.44c0-.6-.49-1.1-1.1-1.1z"/></symbol><symbol id="divine-text" viewBox="0 0 108 43"><path d="M7.74 28.7c-.65-.13-1.9-.2-3.76-.2H.74v13.37h1.62v-6.22h1.17c2.02 0 3.4-.07 4.14-.21 1-.2 1.8-.6 2.38-1.17a3 3 0 0 0 .86-2.2c0-.9-.3-1.63-.89-2.21a4.37 4.37 0 0 0-2.28-1.16zm1.04 4.61c-.3.37-.7.65-1.21.81a8.7 8.7 0 0 1-2.45.25l-2.76-.03v-4.53h2.88c1.1 0 1.9.08 2.38.24.48.15.87.42 1.17.79a1.95 1.95 0 0 1 0 2.47zm13.24 1.92c.78-.28 1.37-.7 1.79-1.25.42-.55.62-1.2.62-1.92 0-.88-.3-1.6-.9-2.2-.6-.6-1.4-1-2.36-1.18-.64-.12-1.87-.18-3.68-.18h-3.24v13.37h1.63v-6.2h1.47l5.3 6.2h2.02l-5.3-6.2c1.36-.01 1.87-.16 2.65-.44zm-6.14-.88v-4.54h2.87a8.5 8.5 0 0 1 2.4.24c.48.15.86.41 1.16.78a1.98 1.98 0 0 1 0 2.47c-.29.38-.7.65-1.22.82-.52.17-1.32.25-2.4.25zm65.17.88c.77-.28 1.37-.7 1.79-1.25.42-.55.62-1.2.62-1.92 0-.88-.3-1.6-.9-2.2-.6-.6-1.4-1-2.36-1.18-.64-.12-1.87-.18-3.67-.18h-3.25v13.37h1.63v-6.2h1.47l5.3 6.2h2.02l-5.3-6.2c1.36-.01 1.88-.16 2.65-.44zm-6.14-.88v-4.54h2.87a8.5 8.5 0 0 1 2.4.24c.47.15.86.41 1.16.78a1.97 1.97 0 0 1 0 2.47c-.29.38-.7.65-1.22.82-.52.17-1.32.25-2.4.25zM41.87 30.2a9.48 9.48 0 0 0-6.2-2.02c-1.52 0-2.93.3-4.24.93a7.7 7.7 0 0 0-3.1 2.57 6.15 6.15 0 0 0 1.36 8.5 9.34 9.34 0 0 0 6.12 2.04c2.38 0 4.4-.69 6.06-2.05a6.24 6.24 0 0 0 0-9.97zm-.1 7.9a6.13 6.13 0 0 1-2.52 2.06 8.2 8.2 0 0 1-3.5.76c-1.9 0-3.51-.55-4.85-1.65a5 5 0 0 1-2.02-4.02c0-1.08.3-2.05.91-2.92a6.37 6.37 0 0 1 2.53-2.08 8.06 8.06 0 0 1 6.9 0 6.3 6.3 0 0 1 2.55 2.06c.6.85.9 1.81.9 2.88a5 5 0 0 1-.9 2.9zm12.85-9.39c-.65-.13-1.9-.2-3.77-.2h-3.24v13.37h1.63v-6.22h1.16c2.02 0 3.4-.07 4.14-.21 1.01-.2 1.8-.6 2.38-1.17a3 3 0 0 0 .86-2.2c0-.9-.3-1.63-.88-2.21a4.35 4.35 0 0 0-2.28-1.16zm1.04 4.61c-.3.37-.7.65-1.22.81-.52.17-1.33.25-2.45.25l-2.75-.03v-4.53h2.88c1.1 0 1.88.08 2.37.24.48.15.87.42 1.17.79a1.95 1.95 0 0 1 0 2.47zm5.39 8.56h9.26v-1.31h-7.64V35.3h7.64V34h-7.64v-4.2h7.7v-1.3h-9.32zM85.33 29.8h3.63v12.06h1.66V29.8h3.63v-1.3h-8.92zM14.5 1.42C12.8.92 10.1.68 6.35.68H1.17v20.53h7.96c3.11 0 5.54-.37 7.26-1.12a9.67 9.67 0 0 0 4.22-3.46 9.3 9.3 0 0 0 1.62-5.43 9.6 9.6 0 0 0-2.05-6.15 10.83 10.83 0 0 0-5.68-3.63zm3.59 14.6a8.35 8.35 0 0 1-4.44 2.72c-1.34.35-3.74.53-7.2.53H3.58V2.69h1.76c3.6 0 6.18.2 7.74.59a8.95 8.95 0 0 1 4.88 2.88 7.68 7.68 0 0 1 1.75 5.08c0 1.88-.54 3.48-1.62 4.79zM29 21V1h-2v20zm15.31.2L55.2.69h-2.72l-8.42 15.86L35.76.68h-2.72l10.73 20.53zM62 21V1h-3v20zm22.46-4.58L67.82.68h-.55v20.53h2.59V5.67l16.5 15.54h.57V.68h-2.47zm22.8 2.78H95.51v-8.07h11.73v-2H95.52V2.68h11.84v-2H93.03V21.2h14.22zm-6.23 16.28v6.39h1.35v-6.39l4.35-6.98h-1.58l-3.46 5.51-3.51-5.5H96.6z"/></symbol><symbol id="draw-icon" viewBox="0 0 38 42"><path d="M36.94 21.08a1.14 1.14 0 0 0-.56-.8c-6.76-4.03-10.74-4.86-13.64-5.47l-1.08-.23-1.26-10.3a4.2 4.2 0 0 0-8.41-.14v6.19l-.1 14.79-1.61-1.24c-.31-.26-2.48-2.01-5.17-2.01-1.81 0-3.43.76-4.79 2.25a1.2 1.2 0 0 0-.09 1.51c.12.16 2.88 4.01 7.21 7.94a38.73 38.73 0 0 0 7.67 5.52 20.63 20.63 0 0 0 9.38 2.61h.14c4.09 0 7.28-1.35 9.47-4.01 4.88-5.92 2.92-16.18 2.84-16.61zm-4.7 15.1c-1.71 2.08-4.27 3.13-7.61 3.13h-.13c-5.95-.05-11.67-4.09-15.41-7.47a55.03 55.03 0 0 1-6.27-6.76c.71-.54 1.46-.8 2.3-.8a6.38 6.38 0 0 1 3.62 1.44l.06.06 3.55 2.72a1.2 1.2 0 0 0 1.94-.94l.12-17.22V4.31a1.8 1.8 0 1 1 3.59.05l.01.15 1.35 11.18c.06.49.41.89.88 1.02.64.16 1.3.31 2 .45 2.82.59 6.31 1.32 12.43 4.89.31 2.07 1.17 9.77-2.43 14.13z"/></symbol><symbol id="facebook-icon" viewBox="0 0 16 28"><path d="M14.984.187v4.125h-2.453c-1.922 0-2.281.922-2.281 2.25v2.953h4.578l-.609 4.625H10.25v11.859H5.469V14.14H1.485V9.515h3.984V6.109C5.469 2.156 7.891 0 11.422 0c1.687 0 3.141.125 3.563.187z"/></symbol><symbol id="googleplus-icon" viewBox="0 0 18 17"><path d="M7.71 1.87c.13.07.27.19.43.34a3.69 3.69 0 0 1 .81 1.32c.09.29.13.63.13 1.02a2.93 2.93 0 0 1-.95 2.27c-.19.18-.38.36-.6.54-.11.12-.22.26-.32.41a.92.92 0 0 0-.18.57c0 .2.06.37.18.51.1.13.2.24.3.34l.69.55c.42.34.79.72 1.1 1.13.3.42.46.97.48 1.65 0 .96-.43 1.81-1.29 2.56-.89.76-2.17 1.16-3.85 1.19-1.4-.02-2.46-.31-3.15-.89a2.4 2.4 0 0 1-1.05-1.95 2.92 2.92 0 0 1 1.54-2.41 6.42 6.42 0 0 1 2.05-.74c.7-.1 1.3-.16 1.76-.17a4.6 4.6 0 0 1-.38-.6c-.14-.21-.2-.46-.2-.75 0-.18.02-.33.07-.44l.13-.34c-.23.02-.45.04-.65.04-1.06-.02-1.88-.35-2.44-1a2.97 2.97 0 0 1-.88-2.12c0-.98.42-1.93 1.25-2.73a4.74 4.74 0 0 1 1.78-.98c.6-.12 1.17-.27 1.7-.27h4.02l-1.24.95zm-.7 5.04c.17-.25.28-.51.33-.77a5.16 5.16 0 0 0-.56-3.04 2.67 2.67 0 0 0-.76-.93 1.76 1.76 0 0 0-2.45.29c-.3.44-.44.93-.43 1.47 0 .72.21 1.47.64 2.24.2.37.47.67.8.93.32.25.7.38 1.11.38.53-.02.97-.21 1.32-.57zm.98 5.07c-.35-.36-.9-.79-1.65-1.31a5.6 5.6 0 0 0-1.23.02c-.42.06-.85.15-1.28.28l-.43.17a2.07 2.07 0 0 0-1.03.96 2.04 2.04 0 0 0 .74 2.64c.6.45 1.43.68 2.48.7a3.51 3.51 0 0 0 2.17-.62c.48-.4.73-.9.73-1.52 0-.51-.17-.95-.5-1.32zm5.71-3.65V5.66h-2.68V4.54h2.68V1.89h1.14v2.65h2.68v1.12h-2.68v2.67z"/></symbol><symbol id="heart-icon" viewBox="0 0 59 51"><path d="M55.34 5.95C52.89 2.74 49.05.89 43.58.3c-.44-.05-.9-.08-1.39-.08-4.85 0-9.68 2.28-12.69 5.9A16.85 16.85 0 0 0 15.42.3C9.95.89 6.12 2.74 3.67 5.94 1.24 9.13.45 13.44 1.32 18.76c1.27 7.72 11.27 17.12 19.3 24.68l.18.18c2.24 2.1 4.17 3.92 5.43 5.28.17.19 1.7 1.87 3.38 1.87 1.7 0 3.2-1.7 3.33-1.87 1.34-1.45 3.51-3.51 5.65-5.54 7.95-7.53 17.83-16.91 19.09-24.6.87-5.32.08-9.63-2.34-12.81zm.32 12.48c-1.14 7.01-10.75 16.13-18.51 23.49-2.13 2-4.33 4.09-5.74 5.62-.35.41-1.24 1.18-1.8 1.18-.54 0-1.42-.7-1.86-1.2a132.88 132.88 0 0 0-5.55-5.4l-.18-.17c-7.8-7.34-17.53-16.48-18.68-23.52-.77-4.75-.12-8.53 1.95-11.25 2.09-2.73 5.47-4.32 10.34-4.84A14.6 14.6 0 0 1 28.65 8.4l.85 1.24.85-1.24a14.6 14.6 0 0 1 13.02-6.06c4.87.52 8.26 2.1 10.34 4.84 2.07 2.72 2.73 6.5 1.95 11.25z"/></symbol><symbol id="logo-icon" viewBox="0 0 72 70"><path d="M.47 69.28H71.1V.06H.47zm33.29-53.2c.44-.37.91-.7 1.4-1 1.2-.74 2.54-1.3 4.02-1.71 1.84-.5 3.9-.78 6.18-.78h13.85v45.42h-1.4v-7.89H43.89c-1.4 0-2.7-.09-3.9-.27.5-.4.96-.82 1.4-1.28.93.07 2 .11 3.24.11H57.8V14.11H44.63c-1.47 0-2.85.16-4.16.47A14.87 14.87 0 0 0 34 17.9c-.59.51-1.1 1.1-1.57 1.72-1.82 2.44-2.74 5.69-2.74 9.79v5.27c0 2.55.37 4.75 1.1 6.6.44 1.09.9 2.01 1.41 2.78l-.13.06c-.6.2-1.1.33-1.53.44-1.5-2.26-2.25-5.22-2.25-8.87v-6.71c0-4 .97-7.35 2.87-10.07a14.32 14.32 0 0 1 2.6-2.84zm-22.63-3.49h13.84c2.3 0 4.35.27 6.2.78-.44.36-.85.73-1.24 1.13l-.06.08c-1.31-.31-2.7-.47-4.16-.47H12.53v34.57H25.7c1.23 0 2.3-.04 3.25-.1l.43-.04c1.03-.1 2.32-.4 3.87-.9l.24-.1c.6-.2 1.16-.45 1.67-.73.7-.38 1.32-.83 1.84-1.34.4-.39.78-.86 1.13-1.4.51-.78.98-1.7 1.41-2.79.74-1.85 1.1-4.05 1.1-6.6V29.4c0-4.1-.92-7.35-2.74-9.8.41-.25.83-.5 1.27-.7 1.9 2.72 2.88 6.06 2.88 10.07v6.7c0 3.66-.76 6.62-2.26 8.88a10.66 10.66 0 0 1-4.63 3.92c-1.4.65-3 1.12-4.81 1.37-1.21.18-2.51.27-3.92.27h-15.3z"/></symbol><symbol id="menu-toggle-icon" viewBox="0 0 35 21"><path d="M0 2V0h35v2zm0 10v-2h35v2zm0 9v-2h35v2z"/></symbol><symbol id="photos-icon" viewBox="0 0 42 34"><path d="M7.37.62v9h-7v24.23h34.52v-5.58h7.02V.62zM3.2 32.21l6.66-6.56 2.99 2.95 10.19-10.05 10.2 10.05v3.61zm30.03-5.93l-10.2-10.04-10.18 10.04-3-2.94-7.83 7.72V11.25h31.21zm7.02.35h-5.36V9.62H9.04V2.26h31.2zM8.2 12.96a3.21 3.21 0 0 0-3.24 3.19 3.21 3.21 0 0 0 3.24 3.19 3.22 3.22 0 0 0 3.23-3.19 3.22 3.22 0 0 0-3.23-3.19zm0 4.74c-.87 0-1.58-.7-1.58-1.55 0-.85.7-1.55 1.58-1.55.86 0 1.57.7 1.57 1.55 0 .85-.7 1.55-1.57 1.55z"/></symbol><symbol id="point-icon" viewBox="0 0 32 42"><path d="M31.11 40.23l-5.36-11.58a.96.96 0 0 0-.51-.5l-2.67-1.22 4.62-7.91.03-.06a12.97 12.97 0 0 0 1.38-5.88c0-3.48-1.33-6.75-3.76-9.2a12.41 12.41 0 0 0-17.83.11A13.01 13.01 0 0 0 3.34 13c-.02 2.07.46 4.13 1.38 5.96l.03.06 4.62 7.91-2.68 1.22c-.22.1-.4.28-.5.5L.83 40.23c-.18.39-.1.85.19 1.16.3.3.74.39 1.13.22l6.71-3.06 6.7 3.06c.26.12.56.12.82 0l6.71-3.06 6.7 3.06a.98.98 0 0 0 1.13-.22c.29-.31.37-.77.19-1.16zM6.49 18a10.97 10.97 0 0 1-1.15-4.98c.03-5.88 4.74-10.73 10.48-10.81a10.42 10.42 0 0 1 7.61 3.13 10.89 10.89 0 0 1 3.17 7.74c0 1.73-.39 3.39-1.15 4.92l-8.62 14.78a.98.98 0 0 1-.86.5.98.98 0 0 1-.86-.5zm17 18.5a.96.96 0 0 0-.81 0l-6.71 3.05-6.71-3.05a.96.96 0 0 0-.81 0L3.8 38.61l4.04-8.74 2.56-1.16 2.99 5.12a2.97 2.97 0 0 0 5.16 0l2.99-5.12 2.56 1.16 4.04 8.74zM15.97 8.4a4.63 4.63 0 0 0-4.57 4.68 4.63 4.63 0 0 0 4.57 4.68c2.52 0 4.57-2.1 4.57-4.68a4.63 4.63 0 0 0-4.57-4.68zm0 7.31a2.6 2.6 0 0 1-2.57-2.63 2.6 2.6 0 0 1 2.57-2.63 2.6 2.6 0 0 1 2.57 2.63 2.6 2.6 0 0 1-2.57 2.63z"/></symbol><symbol id="search-icon" viewBox="0 0 48 48"><path d="M47.18 45.15l-11.4-11.3a19.66 19.66 0 0 0 4.9-13.01A19.94 19.94 0 0 0 20.69 1C9.66 1 .69 9.9.69 20.84a19.95 19.95 0 0 0 20 19.83c5.02 0 9.6-1.83 13.12-4.87l11.4 11.3a1.38 1.38 0 0 0 1.98 0c.54-.53.54-1.41 0-1.95zM3.48 20.84c0-9.41 7.72-17.06 17.2-17.06s17.19 7.66 17.19 17.06c0 9.4-7.71 17.06-17.2 17.06-9.47 0-17.19-7.66-17.19-17.06z"/></symbol><symbol id="share-icon" viewBox="0 0 19 28"><path d="M14.73.64a4.25 4.25 0 0 0-3.68 6.38l-3.71 3.7A4.27 4.27 0 0 0 .9 14.35 4.25 4.25 0 0 0 8 17.51l3.08 3.07a4.25 4.25 0 0 0 3.64 6.43c2.35 0 4.26-1.9 4.26-4.23a4.24 4.24 0 0 0-6.38-3.67l-3.4-3.38a4.19 4.19 0 0 0-.37-3.54l3.71-3.69A4.27 4.27 0 0 0 19 4.87C19 2.54 17.1.64 14.73.64z"/></symbol><symbol id="twitter-icon" viewBox="0 0 26 28"><path d="M25.312 6.375a10.85 10.85 0 0 1-2.531 2.609c.016.219.016.438.016.656 0 6.672-5.078 14.359-14.359 14.359-2.859 0-5.516-.828-7.75-2.266.406.047.797.063 1.219.063 2.359 0 4.531-.797 6.266-2.156a5.056 5.056 0 0 1-4.719-3.5c.313.047.625.078.953.078.453 0 .906-.063 1.328-.172a5.048 5.048 0 0 1-4.047-4.953v-.063a5.093 5.093 0 0 0 2.281.641 5.044 5.044 0 0 1-2.25-4.203c0-.938.25-1.797.688-2.547a14.344 14.344 0 0 0 10.406 5.281 5.708 5.708 0 0 1-.125-1.156 5.045 5.045 0 0 1 5.047-5.047 5.03 5.03 0 0 1 3.687 1.594 9.943 9.943 0 0 0 3.203-1.219 5.032 5.032 0 0 1-2.219 2.781c1.016-.109 2-.391 2.906-.781z"/></symbol></svg>